<svg xmlns="http://www.w3.org/2000/svg" xmlns:xlink="http://www.w3.org/1999/xlink" viewBox="0 0 566.57 140.68"><defs><style>.cls-1{fill:url(#linear-gradient);}.cls-2{fill:#fff;}</style><linearGradient id="linear-gradient" x1="-7.31" y1="140.76" x2="82.38" y2="1.54" gradientUnits="userSpaceOnUse"><stop offset="0" stop-color="#3fe6ff"/><stop offset="0.54" stop-color="#36e5ff"/><stop offset="0.99" stop-color="#2ae4ff"/></linearGradient></defs><g id="Layer_2" data-name="Layer 2"><g id="Layer_1-2" data-name="Layer 1"><path class="cls-1" d="M108.86,15.71a7.18,7.18,0,0,0-3.64-10,76.31,76.31,0,0,0-71.8,133.74,7.17,7.17,0,0,0,10.36-2.5Z"/><path class="cls-2" d="M267.28,59.37q8.13,8.33,8.13,23.13v40.41a2.69,2.69,0,0,1-2.69,2.69H255.63a2.69,2.69,0,0,1-2.69-2.69V85.54q0-7.12-3.77-11t-10.37-3.9q-6.62,0-10.38,3.9t-3.77,11v37.37A2.69,2.69,0,0,1,222,125.6H204.87a2.7,2.7,0,0,1-2.69-2.69V85.54q0-7.12-3.77-11T188,70.61q-6.61,0-10.38,3.9t-3.77,11v37.37a2.69,2.69,0,0,1-2.68,2.69H154a2.69,2.69,0,0,1-2.69-2.69V54.53A2.68,2.68,0,0,1,154,51.84h17.23a2.68,2.68,0,0,1,2.68,2.69h0a2.7,2.7,0,0,0,4.39,2.08,25.64,25.64,0,0,1,4.6-2.86A28.36,28.36,0,0,1,195.44,51a30.54,30.54,0,0,1,14.87,3.57,25.48,25.48,0,0,1,8.22,7.07,2.66,2.66,0,0,0,4.19.12A30.3,30.3,0,0,1,231,54.88,28.17,28.17,0,0,1,245.41,51Q259.15,51,267.28,59.37Z"/><path class="cls-2" d="M300.86,122a33.9,33.9,0,0,1-13.62-13.22,39.56,39.56,0,0,1-5-20.09,39.18,39.18,0,0,1,5-20,34.09,34.09,0,0,1,13.74-13.28,43.65,43.65,0,0,1,39.13,0,34,34,0,0,1,13.75,13.28,39.17,39.17,0,0,1,5,20,38.78,38.78,0,0,1-5.09,20A34.46,34.46,0,0,1,340,122a41.53,41.53,0,0,1-19.63,4.62A40.74,40.74,0,0,1,300.86,122Zm30.53-19.7Q336,97.57,336,88.72T331.52,75.1A15,15,0,0,0,309.65,75q-4.36,4.69-4.37,13.69t4.3,13.61a13.9,13.9,0,0,0,10.77,4.76A14.74,14.74,0,0,0,331.39,102.33Z"/><path class="cls-2" d="M384.4,122a33.9,33.9,0,0,1-13.62-13.22,39.56,39.56,0,0,1-5-20.09,39.18,39.18,0,0,1,5-20,34,34,0,0,1,13.74-13.28,43.65,43.65,0,0,1,39.13,0,34,34,0,0,1,13.75,13.28,39.17,39.17,0,0,1,5,20,38.78,38.78,0,0,1-5.09,20A34.46,34.46,0,0,1,423.52,122a41.53,41.53,0,0,1-19.63,4.62A40.74,40.74,0,0,1,384.4,122Zm30.53-19.7q4.56-4.76,4.56-13.61T415.06,75.1A15,15,0,0,0,393.19,75q-4.37,4.69-4.37,13.69t4.3,13.61a13.9,13.9,0,0,0,10.77,4.76A14.74,14.74,0,0,0,414.93,102.33Z"/><path class="cls-2" d="M519.18,59.44q7.73,8.39,7.73,23.06v40.41a2.69,2.69,0,0,1-2.69,2.69H507.13a2.69,2.69,0,0,1-2.69-2.69V85.54q0-7.4-3.83-11.5T490.3,70Q483.82,70,480,74t-3.83,11.5v37.37a2.69,2.69,0,0,1-2.69,2.69H456.24a2.69,2.69,0,0,1-2.69-2.69V54.53a2.68,2.68,0,0,1,2.69-2.69h17.22a2.68,2.68,0,0,1,2.69,2.69v.34a2.69,2.69,0,0,0,4.41,2.06,25.93,25.93,0,0,1,4.84-3A29.36,29.36,0,0,1,498.49,51Q511.45,51,519.18,59.44Z"/><path class="cls-2" d="M543.5,123.15a11.35,11.35,0,0,1-3.77-8.66,11.69,11.69,0,0,1,3.77-8.85,13.54,13.54,0,0,1,9.71-3.57,13.38,13.38,0,0,1,9.59,3.57,11.69,11.69,0,0,1,3.77,8.85,11.35,11.35,0,0,1-3.77,8.66,13.51,13.51,0,0,1-9.59,3.5A13.67,13.67,0,0,1,543.5,123.15Z"/></g></g></svg>