<svg xmlns="http://www.w3.org/2000/svg" viewBox="0 0 340.17 80"><defs><style>.cls-1{fill:#36e5ff;}</style></defs><g id="Layer_2" data-name="Layer 2"><g id="Layer_1-2" data-name="Layer 1"><g id="Layer_2-2" data-name="Layer 2"><g id="Layer_1-2-2" data-name="Layer 1-2"><path class="cls-1" d="M25,40A15,15,0,1,1,40.1,55H40A15,15,0,0,1,25,40v0"/><path class="cls-1" d="M40,.13A39.87,39.87,0,0,0,24.52,76.79a7.54,7.54,0,0,0,9.88-4v0a7.12,7.12,0,0,0,.42-1.41A7.48,7.48,0,0,0,30.38,63h0a25.09,25.09,0,1,1,19.34,0h0A7.48,7.48,0,0,0,52.6,77.4a8.12,8.12,0,0,0,2.84-.61A39.88,39.88,0,0,0,40,.11"/><path class="cls-1" d="M196.23,35.59a12.73,12.73,0,0,0-25.44,0,12.73,12.73,0,0,0,25.44,0m-37.89,0c0-13.26,10.51-23.51,25.18-23.51s25.17,10.24,25.17,23.51S198.25,59.1,183.52,59.1s-25.18-10.24-25.18-23.51m46.07,33.1h6.74c3.62,0,4.89-1.35,4.89-4.55v-52h12.45V64.25c0,11-4.46,15.67-16.32,15.67h-7.84V68.67ZM138.36,38c0,5.48-5.6,9.87-12.73,9.87-8,0-13-4.7-13-12.54,0-7.27,5.34-12.25,13.57-12.25,6.52,0,12.21,4.56,12.21,9.71Zm.5-25.94v5.25h-.18c-3.21-3.38-8.55-5.23-15-5.23C110.1,12.1,100,22.22,100,35.31c0,13.6,10.34,23.5,24.15,23.5,6.19,0,11.36-1.94,14.49-5.4h.18V58c0,6.08-5.25,10.56-12.21,10.56s-11.08-2-14.62-5.34L103.88,71c5.47,5.75,13.66,9,23,9,14.24,0,24-9.51,24-22.17V12.08ZM260.35,22.16c6.65,0,11.29,3.45,11.87,8.65H248.3c.68-5.2,5.32-8.65,12.05-8.65M261.64,49c-7.48,0-13.35-4.81-13.51-9.4h36.22V36c0-13.33-9.27-23.91-24.26-23.91-14.11,0-24.25,9.9-24.25,23.58,0,14.11,10.66,23.4,26.33,23.4a25.85,25.85,0,0,0,20.08-9l-8.45-5.9A16,16,0,0,1,261.64,49M291.7,0h12V30.81h.16L324,12h16.13L319.35,31.67l20.78,27.38h-14.4L311.46,39.26h-.16l-7.57,7.16V59.08h-12Z"/></g></g></g></g></svg>