<svg xmlns="http://www.w3.org/2000/svg" viewBox="0 0 254.91 80"><defs><style>.cls-1{fill:#36e5ff;}</style></defs><g id="Layer_2" data-name="Layer 2"><g id="Layer_1-2" data-name="Layer 1"><g id="Layer_2-2" data-name="Layer 2"><g id="Layer_1-2-2" data-name="Layer 1-2"><path class="cls-1" d="M138.22,38.1C154.34,30.79,156.71,7,133.8,7H107.26L97.54,26.18h4.64L90.34,72.12h30.77c22.45.2,32.51-26.23,17-34.06Zm-17,17.3h-7.74L116.34,45h7.31c8.61,1.72,3.31,10.75-2.54,10.38Zm4.65-22.11h-6.61l1.92-9h7.31c7.06,1.74,1,9.43-2.7,9.05Z"/><path class="cls-1" d="M121.35,72.4H90l11.74-46H97.07l10-19.77H133.8a20.31,20.31,0,0,1,11.76,3.09,12.25,12.25,0,0,1,5.06,7.58,17,17,0,0,1-2.12,11.77,22.09,22.09,0,0,1-9.66,9A13.32,13.32,0,0,1,145,45a16,16,0,0,1,.42,9.57,23,23,0,0,1-8,12.39A25.13,25.13,0,0,1,121.35,72.4ZM90.7,71.86h30.64a23.89,23.89,0,0,0,23.5-17.42c1.69-7-.89-13.15-6.75-16.11l-.51-.24.53-.25c8.36-3.75,13.63-12.75,12-20.38C148.64,11,142.74,7.23,133.8,7.23H107.48L97.91,25.9h4.52Zm30.78-16.09H113l3.1-10.93h7.57c4.74.94,4.88,3.84,4.65,5A7.41,7.41,0,0,1,121.48,55.77Zm-7.74-.57h7.74a6.9,6.9,0,0,0,6.36-5.42c.3-2.2-1.25-3.81-4.24-4.43h-7.09Zm12.2-21.54h-7.09l2-9.59h7.62c3.45.85,3.61,3,3.4,4.15a7.09,7.09,0,0,1-2.35,3.83A5.73,5.73,0,0,1,126,33.58ZM119.53,33h6.19a4.82,4.82,0,0,0,3.41-1.46A6.63,6.63,0,0,0,131.31,28c.3-1.74-.73-3-3-3.52h-7Z"/><path class="cls-1" d="M201.29,31.51l10.08-17.8-13.63-7.1L196,8.8c-7.36-3.9-45.87,1.55-48.28,39.47,1.45,31.86,37.16,26.13,40.65,24.11l9.83-20.3c-9.62,6.34-29.31,9.37-30.15-9.66,1.73-15.68,20.25-21.55,33.28-10.84ZM251.49,7h-31l-9.85,18.58h5.06L192.38,72.12H215l4.65-11.21h13.86l.35,11.21h20.8ZM225.89,45.8l7.59-18.1.32,18.1Z"/><path class="cls-1" d="M176.73,74.35a35.79,35.79,0,0,1-16.94-3.84,22.53,22.53,0,0,1-8.52-8,29.62,29.62,0,0,1-3.93-14.23h0c1.3-19.82,12.14-29.94,21.1-34.94,10.84-6.06,23.07-6.88,27.36-4.84l1.78-2.24,14.08,7.34L201.29,31.92l-.25-.2a21.85,21.85,0,0,0-22-3.82,17.31,17.31,0,0,0-10.84,14.58c.28,6.2,2.57,10.47,6.83,12.64,6.58,3.36,16.69.85,22.89-3.22l.83-.56L188.5,72.62h0a30.19,30.19,0,0,1-11.06,1.73ZM147.88,48.27c.48,10.29,4.57,17.61,12.17,21.78a35.78,35.78,0,0,0,17.39,3.77,30.39,30.39,0,0,0,10.61-1.64l9.29-19.35a32,32,0,0,1-10.61,4,19.47,19.47,0,0,1-12-1.22,11.93,11.93,0,0,1-5-4.65,18.47,18.47,0,0,1-2.18-8.42h0a18.52,18.52,0,0,1,3.7-9.4,18.09,18.09,0,0,1,7.51-5.65,22.29,22.29,0,0,1,22.26,3.75L210.82,14l-13.1-7-1.78,2.19-.2-.1c-2-1.05-6.08-1.33-10.71-.73a47.1,47.1,0,0,0-16.26,5.46C159.9,18.72,149.13,28.7,147.88,48.27Zm107,24.13H233.56l-.35-11.23H219.87L215.22,72.4H192L215.35,26h-5.08l10.14-19.2h31.4Zm-20.81-.54h20.24l-3.1-64.63H220.67l-9.55,18.1h5L192.83,71.86h22l4.64-11.23H233.8Zm0-25.78h-8.63l8.33-19.73Zm-7.74-.56h7.23L233.28,29Z"/><path class="cls-1" d="M58.08,69l1.21-.34L58,66.84ZM38.34,68.7l-.23,1.64c.59,0,1.33.45,1.63-.7C39.74,68.73,39,68.68,38.34,68.7Zm9.59,0c-.11-.45-.48-.78-1.4-.47l.31,1.68C47.6,69.74,48,69.29,47.93,68.7ZM26.25,67.34l-.36,1.47c.59,0,1.29.51,1.69-.36C27.58,67.89,27.58,67.35,26.25,67.34Zm20.84,3.81.28,1.7c.63,0,1.21-.37,1-1.16s-.79-.68-1.3-.58Z"/><path class="cls-1" d="M72.35,7.77A72.79,72.79,0,0,0,7.73,7.36C-2.41,25.14-2.74,50,7.73,72a71.7,71.7,0,0,0,64.82.45c9.1-18.69,10.6-41.19-.16-64.65ZM37.65,60.89H36.42a15.18,15.18,0,0,0-2.83-8.36c-7.91-9.91-24.1-2.44-19.93-19.31C15.81,24.6,40.46,19.52,37.65,60.89Zm-24-16.66C15.47,47.75,26.31,48.32,30,51c6,4.27,5.11,9.89,5.11,9.89H33.7C31,52.42,23.21,59.15,17,56.85,13,55.46,10.19,49.44,13.69,44.23ZM33.42,71.89,34,67.24h1l-.46,5.08a2.19,2.19,0,0,1-4.23-.2l.54-5.26,1.24.18-.54,4.43C31.65,73,33.12,73,33.42,71.89Zm-5.56,1.25-1.22-.34c.14-1,1.31-3-1-3L25,72.43l-1.31-.25,1.39-6.3c3.42.37,3.73,1.33,3.8,2.35-.14.79-.35,1.35-1,1.48.79.72,0,2.24,0,3.37Zm-7.57-7a7.49,7.49,0,0,0-1.09,3.09c-.11,1.29,1.13,1,1.44.87s.44-1.16.44-1.16l-1-.2.29-.87,1.95.65-.94,3.25-.79-.21V71c-1,.43-2.74.1-3-1a8.33,8.33,0,0,1,1.56-4.94c1-1.24,3.41,0,3.47.73a4.82,4.82,0,0,1-.23,1.55l-.91-.17a2.45,2.45,0,0,1,.14-.7c.14-.42-1.1-.91-1.44-.43ZM38,71.38l-.24,2.8h-1l.33-6.67c2.43,0,3.81.38,3.76,2.09-.14,2.34-2,1.81-2.91,1.78Zm2.41-10.47H38.78c-.14-5.74,1-16.26-2.06-24-2.28-5.85-8.07-8.5-9.29-13.24-2-7.49,1.42-15.61,13-16.23,10.07,1,13.17,8.81,11.45,16C49,30.72,46,29.68,42.32,36.89c-3,7.75-1.86,17.86-1.86,24Zm18,10.62-1.12.39L57,65.25l1.32-.34,3.27,5.51-.9.57-1.08-1.55-1.24.47.11,1.55ZM45.29,60.91H44c1.07-14.76,19.6-11.55,21.31-16.68,2.92,5.08,1.87,9.29-1.2,11.55C56.52,61.24,49.23,51.74,45.29,60.91Zm6.9,7.45.57,3.1c.37.71.62.57,1.17.49.64-.46.52-.91.39-1.55l1.12-.15c.29,2.21-.76,2.44-1.55,2.6-1.69.11-2-.22-2.48-2.42-.26-1.87-.73-3.85.85-4.22,2.6-.39,2.45.77,2.68,1.54l-1.13.19c-.17-.7-.43-1-1-.93a1.06,1.06,0,0,0-.61,1.29Zm-2.37,3.1c0,1-.28,1.54-.9,1.82l-2.63.54-1.06-6.39c.54-.09,3.21-1.07,3.84.7a1.72,1.72,0,0,1-.38,1.93A1.79,1.79,0,0,1,49.82,71.46ZM43,39.4c5.89-16.54,19.34-13.62,22.32-6.19,4.08,14.94-9.08,10.84-17.5,17a13.2,13.2,0,0,0-4.89,10.84H41.49C41.39,51.26,41.24,44.39,43,39.4Z"/></g></g></g></g></svg>