<svg xmlns="http://www.w3.org/2000/svg" viewBox="0 0 251.43 80"><defs><style>.cls-1{fill:#36e5ff;fill-rule:evenodd;}</style></defs><g id="Layer_2" data-name="Layer 2"><g id="Layer_1-2" data-name="Layer 1"><path class="cls-1" d="M32.28,62.06c9.47,0,16.6-3,22.19-8.7C60.22,47.75,62,39.89,62,33.54a27.13,27.13,0,0,0-.46-5.31H32.28v8.48h20.8c-.62,4.77-2.26,8.25-4.73,10.67-3,2.95-7.76,6.21-16.07,6.21a22.56,22.56,0,1,1,0-45.12A22.48,22.48,0,0,1,48,14.53l6.13-6A30.76,30.76,0,0,0,32.28,0C14.74,0,0,13.92,0,31S14.74,62.06,32.28,62.06Zm53.4,0c11.32,0,20.56-8.47,20.56-20s-9.24-20-20.56-20-20.58,8.4-20.58,20S74.34,62.06,85.68,62.06Zm0-7.87c-6.22,0-11.58-5-11.58-12.11S79.46,30,85.68,30s11.55,4.91,11.55,12.1S91.88,54.19,85.68,54.19Zm44.84,7.87c11.34,0,20.57-8.47,20.57-20s-9.23-20-20.56-20S110,30.5,110,42.08s9.24,20,20.58,20Zm0-7.87c-6.2,0-11.56-5-11.56-12.11S124.32,30,130.52,30s11.57,4.91,11.57,12.1-5.36,12.11-11.57,12.11ZM174.61,80c10.54,0,19.48-6,19.48-20.81V23.31h-8.54v3.26h-.31a14.39,14.39,0,0,0-10.78-4.47c-10.25,0-19.64,8.78-19.64,20.06a20,20,0,0,0,19.64,19.9,14.17,14.17,0,0,0,10.78-4.54h.31V60.4c0,7.65-4.19,11.73-10.94,11.73A11.33,11.33,0,0,1,164.28,65l-7.83,3.18A19.49,19.49,0,0,0,174.61,80Zm.61-25.81c-6.2,0-11.41-5.06-11.41-12S169,30,175.22,30s10.95,5.14,10.95,12.18-4.81,12-10.95,12ZM209.29,2.12h-9V60.85h9ZM234,62.06A20.48,20.48,0,0,0,251,53.21l-7-4.54A11.76,11.76,0,0,1,234,54.19,10.44,10.44,0,0,1,224,48.13l27.4-11.05-.93-2.26C248.79,30.35,243.58,22.1,233,22.1s-19.32,8.11-19.32,20c0,11.2,8.69,20,20.33,20ZM222.56,41.48a11.09,11.09,0,0,1,10.71-11.66c3.57,0,6.6,1.74,7.61,4.24l-18.32,7.42Z"/></g></g></svg>