<svg xmlns="http://www.w3.org/2000/svg" viewBox="0 0 371.42 80"><defs><style>.cls-1{fill:#36e5ff;fill-rule:evenodd;}</style></defs><g id="Layer_2" data-name="Layer 2"><g id="Layer_1-2" data-name="Layer 1"><g id="Layer_2-2" data-name="Layer 2"><g id="Layer_1-2-2" data-name="Layer 1-2"><path class="cls-1" d="M198.56,56.25a19.58,19.58,0,0,1-14.45,6.16,23.36,23.36,0,0,1-12.29-3.2V49.8C175,52,179,54,182.85,54c8.17,0,13-5.62,13-13.59s-5-13.77-13.13-13.77a11.33,11.33,0,0,0-8.92,3.94c-2.48,2.85-3.76,6.92-3.76,12.32V80h-.64a8.16,8.16,0,0,1-8.14-8.16V41.48c0-12.89,7.88-23.29,21.39-23.29a20.72,20.72,0,0,1,16.21,6.88,23.45,23.45,0,0,1,5.78,16.28,20.51,20.51,0,0,1-6.07,14.9Zm94.84-.31a20.18,20.18,0,0,1-15.46,6.47,20.6,20.6,0,0,1-16.12-6.88A23.6,23.6,0,0,1,256,39.26a20.67,20.67,0,0,1,20.35-21h.14a24.64,24.64,0,0,1,12.33,3.12v9.51c-3.17-2.16-7.13-4.19-11.05-4.19-8.15,0-13,5.62-13,13.59s5.13,13.78,13.13,13.78a11.47,11.47,0,0,0,9.1-4.14c2.38-2.75,3.63-6.76,3.63-12.16V8.16A8.16,8.16,0,0,1,298.8,0h.66V39.09c0,6.88-2,12.51-6.06,16.85ZM318.15,14a4.91,4.91,0,0,1-3.85,1.49,5,5,0,0,1-5.17-4.86c0-.13,0-.26,0-.39a4.88,4.88,0,0,1,4.74-5h.42a5,5,0,0,1,5.16,4.9v.23a5.45,5.45,0,0,1-1.31,3.7Zm44.51,23.64a10,10,0,0,0-3.94-8.28,14,14,0,0,0-8.91-2.81c-7.88,0-13,6.2-13,13.86,0,7.36,5.38,13.5,12.92,13.5,5.26,0,8-3.06,11-6.88v11a23.56,23.56,0,0,1-5.07,3.11A17.28,17.28,0,0,1,349,62.37c-12.61,0-20.92-10.5-20.92-22.53a21.15,21.15,0,0,1,5.79-15.34A21.46,21.46,0,0,1,350,18.15c12.51,0,21.47,7.2,21.47,20.2v23.2h-.62a8.15,8.15,0,0,1-8.14-8.15h0ZM242.75,35.19a10.63,10.63,0,0,0-5.69-6.91c-7.59-4.24-15.07-.63-18.55,6.87Zm-6.69,27.05a22.89,22.89,0,0,1-16.44-2.73,21.6,21.6,0,0,1-10.51-13,22.46,22.46,0,0,1,15.48-27.65A21.58,21.58,0,0,1,241.16,21c8.76,4.92,12,12.5,11.4,22.27h-35.3a12.18,12.18,0,0,0,6.47,9,12.07,12.07,0,0,0,9.74,1.49c3.34-1,6-3.77,8.24-6.3l7.18,5.25a18.14,18.14,0,0,1-12.83,9.63ZM310,19.06h8.74V61.55h-.6A8.14,8.14,0,0,1,310,53.4h0ZM12.82,61.55C4.26,61.55,0,55.71,0,47.56V16.65A8.15,8.15,0,0,1,8.14,8.5h.62V19.07h14.8v8.42H8.76V48.6c0,3.58,1.59,4.58,5,4.58h9.78v8.43Zm50.87-5.38a21.66,21.66,0,0,1-15.57,6.24,21.55,21.55,0,0,1-15.48-6.24,21.07,21.07,0,0,1-6.57-15.86A21.71,21.71,0,0,1,47.34,18.19h.78a21.68,21.68,0,0,1,15.53,6.29,21.06,21.06,0,0,1,6.57,15.83A21.1,21.1,0,0,1,63.69,56.17Zm41-26.88a53.76,53.76,0,0,1-3,4.64,12.34,12.34,0,0,1-2.29,2.39c6.08,2,8.36,6.18,8.36,12.47V61.55h-.62A8.16,8.16,0,0,1,99,53.39V49.66c0-4.07-1.83-6.83-6.14-6.83h-8V61.55h-.61a8.16,8.16,0,0,1-8.08-8.16V8.16A8.15,8.15,0,0,1,84.26,0h.61V34.32H87.5c2.85,0,4.71-1,5.79-2.82l7.36-12.43h10Zm45.22,26.88a22.43,22.43,0,0,1-31.05,0,21,21,0,0,1-6.57-15.86,22.09,22.09,0,0,1,37.53-15.76,21,21,0,0,1,6.57,15.82,21.09,21.09,0,0,1-6.57,15.87Zm-6.32-25.75a12.16,12.16,0,0,0-9.19-3.8c-8.07,0-12.9,5.89-12.9,13.69S126.35,54,134.3,54s12.88-6,12.88-13.67A13.65,13.65,0,0,0,143.54,30.42Zm-86.17,0a12.16,12.16,0,0,0-9.19-3.8c-8.07,0-12.89,5.89-12.89,13.69S40.18,54,48.12,54,61,48,61,40.31A13.73,13.73,0,0,0,57.37,30.42Z"/></g></g></g></g></svg>