<svg xmlns="http://www.w3.org/2000/svg" viewBox="0 0 268.58 80"><defs><style>.cls-1{fill:#36e5ff;}</style></defs><g id="Layer_2" data-name="Layer 2"><g id="Layer_1-2" data-name="Layer 1"><g id="Layer_2-2" data-name="Layer 2"><g id="Layer_1-2-2" data-name="Layer 1-2"><path class="cls-1" d="M.34,50.15C.34,45.42.25,41.44,0,37.9H9L9.44,44h.25a14.23,14.23,0,0,1,12.68-7,11.86,11.86,0,0,1,11.41,7.61H34A15.7,15.7,0,0,1,39,39.46,13.83,13.83,0,0,1,47.31,37c6.85,0,13.77,4.64,13.77,17.82V79.06H50.89V56.32c0-6.84-2.37-10.9-7.34-10.9a7.93,7.93,0,0,0-7.26,5.5,14.47,14.47,0,0,0-.51,3.46V79.07H25.61V55.22c0-5.74-2.27-9.8-7.09-9.8-3.89,0-6.5,3-7.45,5.92a9.05,9.05,0,0,0-.59,3.38V79.07H.34Zm100.22,19a68,68,0,0,0,.59,9.89H91.71L91,74.52h-.25A15.28,15.28,0,0,1,78.64,80C70.35,80,65.7,74,65.7,67.74c0-10.41,9.21-15.65,24.44-15.56v-.67c0-2.71-1-7.2-8.39-7.2a22.09,22.09,0,0,0-11.07,3l-2-6.76A29.78,29.78,0,0,1,83.56,37c13.19,0,17,8.39,17,17.34v14.9ZM90.42,59c-7.34-.17-14.37,1.44-14.37,7.7,0,4.06,2.62,5.91,5.92,5.91a8.4,8.4,0,0,0,8.12-5.66,8,8,0,0,0,.33-2.29Zm17.32-8.8c0-4.73-.08-8.71-.32-12.25h9.12l.5,6.17h.25A14.87,14.87,0,0,1,130.4,37C137.59,37,145,41.62,145,54.65V79.06h-10.4V55.83c0-5.93-2.21-10.43-7.87-10.43a8.74,8.74,0,0,0-8.11,6.11,10.34,10.34,0,0,0-.42,3.36V79.06H107.74V50.15Zm82.37-28.8V67.5c0,4.19.18,8.79.34,11.53h-9.29l-.43-6.51h-.17c-2.44,4.57-7.44,7.43-13.44,7.43-9.81,0-17.59-8.39-17.59-21-.08-13.79,8.54-22,18.44-22,5.66,0,9.72,2.37,11.53,5.43h.18v-21h10.43ZM179.72,55.07a14.47,14.47,0,0,0-.26-2.71,9.09,9.09,0,0,0-9-7.34c-6.67,0-10.4,5.92-10.4,13.63,0,7.5,3.73,13,10.32,13a9.15,9.15,0,0,0,9-7.34,10.76,10.76,0,0,0,.35-3V55.06Zm17.75,24V37.9H208V79.07Zm17.83-27.9c0-5.58-.09-9.55-.34-13.27h9l.33,7.86h.34a11.32,11.32,0,0,1,11.23-7.87,11.06,11.06,0,0,1,2.44,0V47a14.66,14.66,0,0,0-3-.35c-5,0-8.39,3.22-9.31,7.87a19.32,19.32,0,0,0-.33,3.22V79.07H215.27V51.17Zm27.95,27.89V37.9h10.48V79.07Z"/><path class="cls-1" d="M263.39,5.89c-3.15-3.58-6.46-2-9.1-.64-1.12.54-9.15,5.09-9.15,5.09A7.81,7.81,0,0,1,236,8.52a2.45,2.45,0,0,1-.34-.5l-.32-.55a25.63,25.63,0,0,0-1.76-2.63,15.88,15.88,0,0,0-1.27-1.45c-3-3-7.82-5.17-15.87-1.3-3.81,2.21-16.21,9.3-16.21,9.3-4.67,1.92-8.23-.42-9.39-2.09l-.13-.2-.16-.27-.74-1.34c-.35-.55-.74-1.1-1.14-1.63a15.88,15.88,0,0,0-1.27-1.45c-3-3-7.78-5.14-15.72-1.35l-16,9.16h0l-8.21,4.69,4.19,5.24c1.78,1.71,5.15,4.5,10.34,2.15L176.33,16c12.27-6.73,18.32-.3,21,4,.1.13.17.28.26.41h0a.64.64,0,0,1,.08.14l.3.5a6.71,6.71,0,0,0,5.81,3.19A7.17,7.17,0,0,0,207.36,23l13.87-8h0c12.41-6.82,18.57,0,21.19,4.32a10.32,10.32,0,0,0,.68,1,6.38,6.38,0,0,0,5.39,2.87A8.16,8.16,0,0,0,252,22l16.63-9.6a64.92,64.92,0,0,0-5.24-6.56Z"/></g></g></g></g></svg>