<svg xmlns="http://www.w3.org/2000/svg" viewBox="0 0 168.42 80"><defs><style>.cls-1{fill:#36e5ff;fill-rule:evenodd;}</style></defs><g id="Layer_2" data-name="Layer 2"><g id="Layer_1-2" data-name="Layer 1"><path class="cls-1" d="M69.33,0c-7,.49-12.9,6.35-12.9,14.62V54a2.58,2.58,0,0,1-2.6,2.65H41.54c-26.61,0-24.25-33.95-1.6-34H53.56V12.77H39.48c-9,0-15.73,3.37-20.24,8.37a27.73,27.73,0,0,0-6.79,18.52A27.09,27.09,0,0,0,19.3,58.13c4.62,5,11.61,8.38,21.19,8.38h23.2a2.86,2.86,0,0,0,2.79-2.84v-48a4.94,4.94,0,0,1,3.2-5,4.7,4.7,0,0,1,5.19,1.94l.06.06c6.59,10.78,32.77,52.73,32.81,52.81a2,2,0,0,0,2.21,1c.62-.22,1.25-.88,1.25-2.56V15.71a4.94,4.94,0,0,1,3.2-5,4.63,4.63,0,0,1,5.15,2v.06h.1c6.59,10.77,32.77,52.73,32.81,52.8a1.94,1.94,0,0,0,2.21,1c.66-.21,1.3-.84,1.3-2.49V.29H146V37.52S140.09,27.4,130,10C120-7.11,101.21,0,101.21,14.66V37.52S95.37,27.4,85.21,10C80.84,2.5,74.77-.37,69.33,0ZM41.21.29C-14.12.29-13.6,79.06,42,79.1H63.69C73,79.1,79,73.58,79,63.37v-20s12.2,20.15,17,28c8.13,13.43,27.78,10.78,27.72-6V43.4s12.16,20.15,16.94,28c8.13,13.43,27.84,10.78,27.78-6V.27h-9.95V64.05a4.77,4.77,0,0,1-3,4.84A4.55,4.55,0,0,1,150.38,67h0v-.1s-26.2-41.84-32.87-52.75c0,0,0,0-.06,0s0-.06,0-.06a2.09,2.09,0,0,0-2.3-.9c-.74.24-1.46.88-1.44,2.5V64a5,5,0,0,1-3,5,4.49,4.49,0,0,1-5-2v-.06h-.06S79.37,25,72.72,14.13a2.06,2.06,0,0,0-2.34-1c-.74.23-1.46.87-1.44,2.49v48A5.37,5.37,0,0,1,63.63,69H40.45c-10.18,0-17.89-3.67-23-9.18A29.66,29.66,0,0,1,9.86,39.64a30.34,30.34,0,0,1,7.49-20.21c5-5.52,12.43-9.18,22.08-9.18H53.52V.28Z"/></g></g></svg>