<svg xmlns="http://www.w3.org/2000/svg" viewBox="0 0 155.1 80"><defs><style>.cls-1{fill:#36e5ff;fill-rule:evenodd;}</style></defs><g id="Layer_2" data-name="Layer 2"><g id="Layer_1-2" data-name="Layer 1"><path class="cls-1" d="M151.48,76.06h.77l1.06,2.86h0l1-2.86h.75v3.47h-.5V76.7h0l-1.06,2.83H153l-1-2.83h0v2.83h-.5Zm-.25,0v.41H150v3.06h-.5V76.47h-1.21v-.41Zm3.87-51.25a3.37,3.37,0,0,0-6.73,0v6.94a3.37,3.37,0,0,0,6.73,0Zm-18.5-9.08a3.39,3.39,0,0,0-6.78,0v16a3.39,3.39,0,0,0,6.78,0v-16ZM118,3.29a3.37,3.37,0,0,0-6.73,0v35a3.37,3.37,0,0,0,6.73,0v-35ZM99.48,15.73a3.37,3.37,0,0,0-6.73,0v16a3.37,3.37,0,0,0,6.73,0v-16ZM80.93,24.81a3.38,3.38,0,0,0-6.75,0v6.94a3.38,3.38,0,0,0,6.75,0V24.81ZM62.4,15.73a3.39,3.39,0,0,0-6.77,0v16a3.39,3.39,0,0,0,6.77,0v-16ZM43.86,3.29a3.38,3.38,0,0,0-6.75,0v35a3.38,3.38,0,0,0,6.75,0v-35ZM25.31,15.73a3.38,3.38,0,0,0-6.75,0v16a3.38,3.38,0,0,0,6.75,0v-16ZM6.75,24.81a3.33,3.33,0,0,0-3.37-3.28A3.34,3.34,0,0,0,0,24.81v6.94a3.35,3.35,0,0,0,3.38,3.3,3.34,3.34,0,0,0,3.37-3.3ZM76.47,59.16a24.84,24.84,0,0,0-5.33-.8c-2.71,0-4.19.88-4.19,2.16,0,1.59,2,2.16,3.1,2.51l1.88.57C76.35,65,78.37,68,78.37,71.15c0,6.63-6,8.85-11.17,8.85a41,41,0,0,1-7.34-.71V73.21a25.28,25.28,0,0,0,6.42,1c3.38,0,4.94-1,4.94-2.47s-1.33-2.12-3-2.63l-1.46-.47C63,67.48,59.8,65.29,59.8,60.93c0-4.93,3.77-8.24,10-8.24a29.4,29.4,0,0,1,6.62.84v5.63Zm50.43.26a6.94,6.94,0,1,0,7,6.94A6.87,6.87,0,0,0,126.9,59.42Zm14.24,6.94C141.14,73.9,135.2,80,126.9,80s-14.23-6.1-14.23-13.64,5.94-13.67,14.23-13.67S141.14,58.81,141.14,66.36ZM34.52,60.73a11.84,11.84,0,0,0-5.71-1.41c-4.42,0-7.46,3-7.46,7s2.92,7,7.46,7A12.11,12.11,0,0,0,34.52,72v7.07a21.52,21.52,0,0,1-6.21.94C20.66,80,14,74.84,14,66.36c0-7.9,6.07-13.67,14.34-13.67a20.17,20.17,0,0,1,6.21,1Zm71,0a11.84,11.84,0,0,0-5.71-1.41c-4.4,0-7.44,3-7.44,7s2.92,7,7.44,7A12.11,12.11,0,0,0,105.5,72v7.07a21.34,21.34,0,0,1-6.19.94C91.66,80,85,74.84,85,66.36c0-7.9,6.07-13.67,14.36-13.67a19.92,19.92,0,0,1,6.19,1ZM50.67,79.53H43.88V53.16h6.79Z"/></g></g></svg>