<svg xmlns="http://www.w3.org/2000/svg" viewBox="0 0 198 80"><defs><style>.cls-1{fill:#36e5ff;fill-rule:evenodd;}</style></defs><g id="Layer_2" data-name="Layer 2"><g id="Layer_1-2" data-name="Layer 1"><path class="cls-1" d="M25.6,17.44c-14,0-25.6,6-25.6,24C0,55.7,7.81,64.71,25.94,64.71c21.35,0,22.7-14.2,22.7-14.2H38.32s-2.21,7.65-13,7.65c-8.78,0-15.12-6-15.12-14.4H49.76V38.5C49.76,30.23,44.54,17.44,25.6,17.44ZM59.81,0V25.08s4.3-7.49,18.06-7.49c14.73,0,23.43,10.49,23.43,23.52a28.85,28.85,0,0,1-.35,4.52c2.39-6.71,10.61-10,24.13-10h12.26V33.43c0-6.13-5.34-9.32-12.26-9.32-10.63,0-11.17,6.78-11.17,6.78H103.47c0-1.87,1.35-13.45,22.34-13.45,7.18,0,15.05,1.52,19,7.51l-3-5.68h11.75l16.9,34.13,16.86-34.13H198L167.34,80H156.17L165,63.07,146.1,27.34a19.34,19.34,0,0,1,1.33,7.49V56.75c0,2.54.35,6.52.35,6.52H138.5s-.24-3.2-.24-6.44c0,0-4.71,8.15-19.37,8.15-10.71,0-18.67-5.22-18.67-14.82a14.84,14.84,0,0,1,.07-1.51C97.51,58.5,89.16,64.9,77.87,64.9c-13.26,0-18.13-7.68-18.13-7.68,0,2.89-.35,6.09-.35,6.09H49.53s.23-4.45.23-7.61V0Zm77.56,42.16c-15.89,0-26.67.08-26.67,8,0,4.37,3.21,8.15,10.71,8.15,13.64,0,16-9.44,16-13.22Zm-62-17.7c-10.64,0-15.51,8.5-15.51,16.69C59.85,50,65.3,58,75.43,58c8.47,0,15.43-6.67,15.43-16.89C90.86,31.56,84.83,24.46,75.36,24.46Zm-50.11-.28c8.35,0,14.07,5.15,14.07,12.91H10.48C10.44,28.86,17.9,24.18,25.25,24.18Z"/></g></g></svg>