<svg xmlns="http://www.w3.org/2000/svg" viewBox="0 0 310.18 80"><defs><style>.cls-1{fill:#36e5ff;fill-rule:evenodd;}</style></defs><g id="Layer_2" data-name="Layer 2"><g id="Layer_1-2" data-name="Layer 1"><g id="Layer_2-2" data-name="Layer 2"><g id="Layer_1-2-2" data-name="Layer 1-2"><path class="cls-1" d="M101.34,10.4a18.48,18.48,0,0,0-5.06,1.3c0,.08-.87,0-.75.27.37.13-.84.28-.92.38a20.7,20.7,0,0,1-2.14,1.46.2.2,0,0,1-.18.22h0c-.29,0-.3.55-.64.59-.46.35-.88,1-1.39,1.31-.44.5.66-.53,0,.34-.3.53-.57.37-.63.73s-.34-.05-.24.16c0,.55-1.07,1.55-1.07,2.09a12.14,12.14,0,0,1-.49,1.66c-.29.43,0,1.72-.32,1.44s.29.45.07.64c-.19.47.08,1.85-.09,2.14.44,1.13.38,2.32,1.07,3.29.18.23-.1.38.17.6s.17.22.13.29,0,.12.1.12,0,.21.23.41,1.07,1.18.71,1.07c-.12-.06-.1,0,0,.09s.17.49.36.46c.49,0,1.07,1.07,1.22,1.31s.23.17,0-.09,0-.06.24.19c.5.55.29.21.68.54s.07.45.36.36.31.54.54.45.73.59.85.6c.3,0,.35,0,.28.13s0,.14.23.14,1.28.83,1.3.73c-.24-.57,1,.6,1.07.47,2.14.78,5.11,1.74,7.3,2.69.61-.17.62.18,1.15.25s.13.25.83.31.79.41,1.25.39c.28-.09.34.37.53.34s.34,0,.63.2c.59.32.75.12.88.56.75,0,1,.59,1.17.59s.22,0,.22.09.21,0,.5.34.45.11.75.43-.27-.13-.1.16c.06.1.15.14.21.1.31-.1.8.87,1.07.89s0,.28.26.28c.49.22.81,1.29,1.21,1.65.18,0-.11.28.1.28s0,.33.24.69c.85,2.14.22,5.51-1.07,6.67-.34.14,0,.28-.32.56-.12.14-.17.17-.12.07s0-.16,0-.09a2.51,2.51,0,0,1-1,1.07c-.17,0-.07.32-.26.2-.09.1-.84.64-1.08.56-.86.77-1.43.71-2.3,1.17-1.5.17-1.68.43-3,.58-.6,0-5.12.25-5.88-.36a20.93,20.93,0,0,1-8.43-3.69c0,.25-1.07-.67-.93-.69s0-.09-.1,0c-.27.06-.3-.41-.7-.41s-.14-.28-.66-.26c-.84,0-.44.46-1,.68s.31.23-.3.54c-.38.17-.2.42-.37.48s-.12.07-.07.14-.24.09-.21.34-.41.14-.46.64c0,.23-.15.38-.21.34s-.28.79-.43.67c-.34.27.65,1.52.84,1.38a9,9,0,0,0,1.51,1.08c.69.45.79.73,1.16.82.29-.09.15.21.45.28.67.26,1.79,1.17,2,1.07.3.25,1.23.5,1.4.78.24,0,1.14.21,1.14.32s.33-.11.48.12.14-.1.4.13,1.22.11,1.32.45c.57.22,2.6.41,2.93.62,6.13,1.07,14-.16,18.21-4.95a14.48,14.48,0,0,0,3.34-11.26c-.61-1.88-.09-1.82-.76-2.63-.23-.33-.45-1.66-.8-1.81s-.5-1.39-.9-1.07c.06.06-1.84-2.14-2.15-2.14s-.07-.44-.25-.36-1-.77-1.14-.75-.06-.32-.26-.2-.14,0-.14-.06-.34,0-.57-.33c-.52-.51-.87-.76-.74-.5s-.33-.35-.38-.18-.16-.28-.51-.29c-.53,0-.17-.32-.43-.34a28.85,28.85,0,0,1-3.36-1.37c.17-.24-.66-.11-.61-.3s0-.13-.1-.12c-.8,0-1.43-.7-2.14-.76-.28.08-.3-.24-.63-.12s-.18-.27-.51-.14.13-.34-.16-.18-.56-.14-1.07-.3-.84-.08-1-.31-.51,0-.64-.27-.17-.16-.17,0c0,.31-.45-.33-.57-.17s-.08-.24-.41-.12c-.78-.19-1.79-.91-2.65-1.19-.34,0,0-.29-.34-.28s-.66-.53-.87-.47-.26-.4-.47-.36-.49-.32-.23-.22.15,0-.2-.25c-.55-.39,0,.28-.48-.22-.39-.7-.65-.6-1-1.07,0-.22-.31-.13-.21-.31s0-.16-.13-.2-.14-.47-.36-.51c-.67-1.54-.95-4.41.16-6,.21,0,.1-.58.3-.71.69-.83,1.07-.91,1.36-1.43.07,0,.09-.07,0-.16s.38.08.3-.09.88-.58,1-.76a3.17,3.17,0,0,1,1.44-.63.15.15,0,0,0,.13-.14c0-.2.7-.08.68-.31s.23.35.33,0,.35.06.36-.15c1.8-.79,7.06-.34,8.33.26a21.71,21.71,0,0,1,4.88,1.88.84.84,0,0,1-.31-.08c-.61-.33.24.32.34.2a15,15,0,0,1,1.74,1c0-.11.83.32.77.18s0-.12.08-.12a.74.74,0,0,0,.55-.58c0-.14,0-.14.11,0s.17,0,.28-.31.36-.38.44-.67c.4-.69,1.87-2.14,1.18-2.93-.21.06,0-.38-.22-.26s-.14,0-.14-.05-.43-.1-.35-.27-1.07-.27-.74-.44-.59,0-.64-.33a.15.15,0,0,0-.2-.14c-.12.27-1.23-.82-1.08-.48s-2-1.16-2.05-.95a31.25,31.25,0,0,0-11.78-1.72"/><path class="cls-1" d="M127.25,10.38c-.17-3.91-.22,52.75-.1,52.29.29.45.17.4,2.89.42,2.35,0,2.59,0,2.59-.22s.06-.08.13,0-.07-.38.09-.35.11-4.1.09-9.11c0-6.62,0-9.27.12-9.64s.15-.59.26-.84a5.25,5.25,0,0,0,.4-1.35c0-.16.29.11.27,0s.17-.74.31-.74-.1-.29.18-.27.12-.67.52-.77c2.15-2.82,5.71-4,9.74-3.45a9.16,9.16,0,0,1,1.82.71c.21.07.65-.05.6.2s.81.26.75.5,0,.18.11.17.71.18.65.3c4.08,4.69,3.21,2.37,3.42,14.87,0,9.87,0,9.92.45,10,6.87-.45,5.41,3.46,5.6-9.47-.1-10.45.15-7.8-.43-10.9a11.74,11.74,0,0,0-1.27-3.84c-.35-.33,0-.62-.34-.68s-.16-.56-.48-.76c-.15-.33-.65-.74-.75-1.07.11-.12-.55-.37-.42-.52s-.65-.37-.61-.5c.13-.33-.26-.65-.22-.32s-.57-.87-.83-.82c-.46-.36-.5-.36-1-.78s-.22,0-.6-.46c-.16-.19-.24-.25-.17-.14s-1.14-.78-1.07-.6,0-.26-.27-.15A11.46,11.46,0,0,0,146.85,31,15.18,15.18,0,0,0,135,32.35a16.31,16.31,0,0,0-1.82,1.14c-.14.08-.17-2.15-.17-11.13,0-6.74,0-11.28-.07-11.65-.24-.33-.25-.33-2.91-.33H127.3"/><path class="cls-1" d="M61.46,21.4c.06-.6.47-4-.18-4.28-.12,0-.51-.7-.47-.37,0,.1,0,.1-.08,0,1.44-.18-15.74,0-14.71-.17,0-.37-.11-1.56-.12-1.72A29.87,29.87,0,0,0,45,10.77c-.2-.3-.35-1.07-.51-1.18s-.12-.4-.3-.62c0-.06,0-.1-.05-.1s0-.17-.19-.36-.08-.35-.26-.47a14,14,0,0,0-2.14-3c.28.24.06-.2,0-.2a4.19,4.19,0,0,1-1.07-1.07c0-.16-.2,0-.36-.27-.33-.36,0,.15-.43-.32s-1.74-1.07-2-1.44c-.07.1-.1.1-.17,0s-.73-.2-.65-.38-.75-.17-.73-.37-.29,0-.29-.1A12,12,0,0,0,33.19.15a16.75,16.75,0,0,0-6.42.38C25.93.89,25,1.33,24,1.8c-.15,0-.25.33-.39.28s-.07.18-.29.14-.1.24-.26.22-.09.2-.21.12-.29.38-.5.39-.16.1-.13.17-.31-.08-.22,0-.07.2-.79.79c-.22.18-.37.38-.34.43s0,.08-.09,0-.11.21-.3.26-.26.64-.29.34c0-.09,0-.1,0,0a.51.51,0,0,1-.25.45A17,17,0,0,0,18.2,7.62c.05.17-.18.35-.3.53s-.14.13-.08.11-.22.64-.26.56c-.11.6-.75,1.44-.85,2.14a10.81,10.81,0,0,0-.53,1.67c-.1.2.09.11-.11.42s-.11.27,0,.22.08,0,0,.11a15.25,15.25,0,0,0-.44,3.36H8.29c-8.07.26-7-.53-8.29.79.32,10.76,1.07,23,1.45,33.31.16,3.65.33,6.91.48,10.71.05,2.35.14,3.81,1.41,5.65,4.7,4,1.89,1.7,27.36,2.36,16.35-.44,21.71,1.07,25.78-.93,3-2,2.92-4.37,3.21-7.66-.13-.44.25-5.36.38-8.57C60.43,42.34,61.14,31.12,61.46,21.4ZM19.8,15.45c.27-1.29.39-2.14.72-3.22.12-.28.16-.5.25-.73s-.12.22.05.11,0-.43.11-.45-.09-.36.1-.24-.06-.25.08-.24.23-.6.45-.69a10.71,10.71,0,0,1,5.87-5.36c4.71-1.91,10,.54,12.4,4.88a8.33,8.33,0,0,1,.8,1.61c-.13.35.24-.09.14.2a13.69,13.69,0,0,1,1,3.66,7.84,7.84,0,0,0,.14,1.07c.12-.08.09.2,0,.34s.12.16.13.28-5,0-11.09,0C22.56,16.1,19.13,18,19.8,15.45ZM42.21,52.1a9.71,9.71,0,0,1-.7,2.36c-.14,0-.2.21,0,.14s.09,0,.09,0a10.59,10.59,0,0,0-.66,1.07c-.21-.07-.12.32-.24.41s-.24-.06-.31.29-.61.42-.53.64q.12-.07.06,0c-.37.14-.77.85-1.07,1-.51.24-.84.81-1.46.88-.1,0,0,.23-.22.14s-.13,0-.1,0a3.12,3.12,0,0,1-.82.4c-4.17,1.65-10.71.82-15-2a7.72,7.72,0,0,1-1.19-.87c-.54-.48-.95-.38-.93-1.07.21-.68.95-1.33,1.25-2,.06-.2.44-.51.7-.3a.1.1,0,0,0,.16,0c.15-.07.08.26.26.24,3.38,2.85,9.73,5,14.24,2.45a5.18,5.18,0,0,0,.84-.53c.12-.08.38-.08.57-.46.18-.19.66-.44.78-.83,0-.09,0-.14.12-.13a5.48,5.48,0,0,0,.5-4.57A7.14,7.14,0,0,1,37.8,48c-.46-.32-.24-.15-.38-.48a14,14,0,0,0-4.11-2.66c-3.47-1.34-7.44-2.26-10.22-4.62-.06-.2-.23,0-.23-.19s0-.14-.08-.11-.32-.45-.43-.42c-.37-.11-.3-.44-.62-.73s.09,0-.17-.37c-.08-.23-.35-.15-.32-.2s-.32-.39-.12-.28-.37-.48-.23-.45a8.25,8.25,0,0,1,.62-7.84c3.86-6,13.49-5,18.79-1.35.85.24,0,1.46-.36,1.84-.08.08-.11.11,0,.07.27-.16-.15.3-.22.18s-.08,0,0,.11c.08.33-.64.86-1,.46-.36.12-.23-.26-.4-.26s-.45-.34-.49-.28c-.47-.19-1.31-.66-1.8-.9q-.12-.19-.12,0c0,.26-.37-.25-.39-.15a13.29,13.29,0,0,0-7-.66c-.54,0-.79.3-1.2.37-.2-.08-.2.28-.41.19s-.13,0-.07.07,0,.11-.07.06-.22.24-.39.21a6.05,6.05,0,0,0-1.67,1.5,5,5,0,0,0-1,3.87c0,.12,0,.14.06.09s0,.35.12.33-.06.3.08.29m0,.09a2.2,2.2,0,0,0,.52.85c-.06.44.13.14.31.39s.12.15,0,.09c0,.15.44.18.53.52s.28.12.34.32.32,0,.26.12c0,.33.55.28.66.49s.48.21.63.41c.36,0,.93.53,1.07.55s.1.15.24.08a2.66,2.66,0,0,1,.65.23c.13.17,0-.08.33.18a2.72,2.72,0,0,1,1.07.36c.16,0,.19.16.4.1s0,.21.38.19.58,0,.7.25a6.21,6.21,0,0,1,1.52.52,21.64,21.64,0,0,1,3.16,1.48c0,.14.4.07.41.2s.29.07.29.2.25,0,.21.17,0,.12.14.12.45.38.36.19,0,0,.18.12c.26.33.51.29.67.54v.08s.49.32.59.39c0,.34.76.66.89,1a7.71,7.71,0,0,1,1.41,2.67,8,8,0,0,1,.17,3.27c-.11.31.27-.21.13.27Z"/><path class="cls-1" d="M196,43.9c-.18.1.08-.43-.1-.45s0-.73-.13-.83,0-.6-.15-.61-.12-.14-.07-.35-.58-.6-.39-1.17c.09-.16-.35-.32-.34-.44a2.49,2.49,0,0,0-.49-1.28c-.24-.13-.13-.43-.36-.48s-.12-.09-.08-.2-.32-.7-.46-.82c-.37-.37,0-.42-.54-.76s-.3-.71-.63-.83c-.1,0-.26-.14-.36-.31A15.21,15.21,0,0,0,189,32.81c-.37-.06-.36-.4-.5-.4s-.88-.29-.88-.46-1.3-.36-1.53-.74A19.94,19.94,0,0,0,178.87,30h0a24.82,24.82,0,0,0-4.37.76c-.07.15-.3,0-.48.21-.38.15-.8.34-1.22.47-.21-.12-.47.62-.59.28.09-.23-.39.07-.34.15s-.42.07-.41.25-.11.14-.25.14-1,.86-1.24.73-.18,0-.1.08-.09.22-.38.18c-.06,0-.08,0,0,.09s-.64.44-.5.63-.41-.1-.33,0-.76,1-.66.71,0-.09-.07,0c-.61.63-.71.9-1.38,1.58a5.09,5.09,0,0,0-1.07,1.53c.1.17-.4.25-.28.42s0,.2-.1.31A8.46,8.46,0,0,0,164,40.74a33.48,33.48,0,0,0-1,4.63c-.19.15.29.08.21.36s0,.2-.15,0-.13-.17-.07,0c.24.72.26,1,.09.85s.24.72.13,1.24c0,1.13.07,1.35.19,1.55a20.48,20.48,0,0,0,1.48,4.1c.23.26-.17.15.16.35a2.62,2.62,0,0,1,.65,1.07c0,.33.39.18.41.44s.6.58.47.81,0,.12.07,0A22.61,22.61,0,0,0,169,58.39c.31.07.22.53.42.49s.91.75,1.07.65.27.4.45.3.12,0,.12,0,.71.27.68.44.09.1.2,0c.45,0,1.26.79,1.59.87,0-.15.85.37.84.24s.6.46.34.09.39,0,.43,0,0,.24.35.16c.7-.14,0,.33.61.2,2,.79,7.87.07,10.13-.91.8-.8.57-.17,1.07-.51s.7-.2.84-.4a5.27,5.27,0,0,1,2-1.34c.31-.39,2.5-2.48,2.67-2.83A15.89,15.89,0,0,0,196,43.9Zm-5.67,4.5c-.14,0-.13.86-.28.92s.1.57-.12.46-.27,1.21-.61,1.14.4.23,0,.38c-1.07,1.47-2.62,3.7-4.35,4.12-3,2.14-8,1.88-11.21-.23-.29-.22-1.23-.56-1.08-.89-.08-.1-.5-.09-.86-.57-1.29-1.37-.92-1.43-1.76-2.33-1.07-2-1.9-6.85-.51-8.83-.1-.17.45-.71.17-.54a.15.15,0,0,1-.17,0s.45-.23.33-.49,0-.28.19-.37.25-.25.2-.35c-.06-.27.57-.44.51-.74.16-.44.56-.7.79-1.07s0,.12.09.16a2.15,2.15,0,0,0,.35-.5c.59-.87.14.09,1.16-.94.24-.34.66-.17.59-.32.17-.53,2-1.08,2.26-1.08,1.15-.72,4.59-.75,6.18-.46h0a2.39,2.39,0,0,0,1,.37c.28-.13.62.37.84.3s.07.29.34.16-.16.28.41.18c.24,0,.89.45.81.58s0,.12,0,.06c.6-.21.34.3.71.42s.22.33.44.25a15.31,15.31,0,0,0,1.41,1.38c.74.63.26.93.78,1.31.33.11.08.35.27.41A11.44,11.44,0,0,1,190.33,48.4Z"/><path class="cls-1" d="M272.36,43.69a21.21,21.21,0,0,0-.92-3.32c.12-.13.07.3.16.21.17-.55-.4-.26-.34-.8,0-.24-.09-.46-.2-.5s0-.6-.33-.74c-.12-.07-.18-.14-.1-.14s-.57-.71-.42-.69c.16-.29-.66-.85-.69-1-.52-1.34-2.42-2.8-3.39-3.66.3.15.18-.05-.12-.21-.49-.33,0,.33-.33-.07-.17-.3-.41-.14-.48-.34s-.45-.08-.35-.28-.68-.11-.81-.4a15.29,15.29,0,0,0-9-1.77h0a6.64,6.64,0,0,0-1.32.23c-.35,0-.8,0-.95.18s-.54-.19-.34.11-.36-.05-.42.14-.6.07-.61.29-.06.11-.2,0-.21-.14-.21,0c-.38.53-1.18.36-1.7.86s-.81.36-1.5.88c-.18,0,.13.3-.15.2s-.31.39-.61.35-.2,0,0,.13.13.14-.1.21a10.35,10.35,0,0,0-.91.69c-.26.4-.45.07-.49.4a3.23,3.23,0,0,1-.68.92,11.64,11.64,0,0,0-2.39,4c0,.14-.34,0-.27.35-.17.33-.27,1.36-.51,1.54a18.28,18.28,0,0,0-.24,8.45c.49.72.34,2,1,2.56.11.11-.06.35.18.62s.18.34.12.34c.42.52,1.27,2.15,1.69,2.62s.63,1.07,1.07,1.17.12.4.38.49a1.28,1.28,0,0,1,.54.37A14.46,14.46,0,0,0,249,60c.16,0,.2,0,.13.07s.36.11.33.31a.08.08,0,0,0,.06.09.08.08,0,0,0,.07,0c.17-.12.25.24.44.13s.07.27.32.16.29.32.45.31.6,0,.51.15,0,.14,0,.12c.7-.16.51.24.89.19,1.66.95,8.57,1.25,10.31.58a12.56,12.56,0,0,0,2.27-.48c-.26-.32.9,0,1-.26-.1-.15.69-.44.82-.31s.48-.49.81-.44.72-.47,1-.41.11-.3.52-.3.46-.41.69-.41,1.07-1.07,1.41-.93c.18,0-.14-.29.16-.33s.15-.4.35-.48c.51-.43.18-1,0-1.4s-.55-.75-.7-1.2a21.23,21.23,0,0,0-1.28-1.73.72.72,0,0,0-1.19,0c0-.15-.32.42-.41.28s-.23.4-.42.27-.09.36-.24.33c-.54,0-.78.83-1.88,1.07-.69.59-.45.15-1.7.82-.26.12-.42.15-.36.07s-.42.16-.56.13c-.53.44-2.55.35-2.91.62s-2.38-.16-2.15,0,.08.17-.07.08c-.68-.26-2.63-.29-3.41-.79-.44-.36.28.47-.2,0-.42-.16-.6-.33-1.14-.53-.2-.2-.55.07-.41-.14s-.76-.19-.89-.59c-.35-.42-.18,0-.48-.34-.12-.15-.18-.18-.12-.08-.31.24-1-1.21-1.49-1.26-.1,0-.16-.17-.12-.42s-.56,0-.45-.37c-.08-.21-1.15-1.43-1-1.64-.07-.12-.72-1.17-.54-1.53-1.33-2.15.74-.79,11.64-1.08C271.28,47.69,273.27,50.53,272.36,43.69Zm-15.51-1.07c-12.12-.32-10.35,1.35-8-3.51.13-.35.48-.19.45-.27s.87-1.18,1.08-1.18c.37-.19,1.55-1.25,2-1.15h.08c-.05,0,.57-.52.79-.43s.43-.27.49-.12c.93-.61,3.76-.34,5-.35.84.18,1.61.61,2.46.83A26.73,26.73,0,0,0,263.52,38a11.45,11.45,0,0,1,3,4.6Z"/><path class="cls-1" d="M309.94,47.29c.51-1.47-.06-4.35-.3-5.29,0-.25-.08-.38-.15-.34s.05-.7-.13-.64-.09-.07,0-.13-.25-.29-.2-.57c-.19-.33-.39-1-.63-1.33s-.09-.67-.46-.87c-.17-1-1.07-1.49-1.46-2.31.08-.11-.56-.36-.5-.48s-.31-.5-.41-.43-.34-.43-.1-.27.12,0,0-.07-.45,0-.5-.15-.27-.75-.2-.45c.32.74-.95-.84-1.08-.71s-.68-.61-.81-.66c-.06-.29-.7-.15-.6-.41s-.79,0-.71-.39c0-.18-.4.06-.56-.26s-.76-.2-.87-.45A17,17,0,0,0,292.59,30h0a15.14,15.14,0,0,0-9.83,5.33c-.23.22-.37.32-.31.21.16-.32-.24,0-.12.18-.19.48-.95,1.08-1.07,1.64a9,9,0,0,0-1.62,3.32c0,.1,0,.17-.12.17s.06.27-.13.35.06.45-.11.48-.13.26-.14.58a17,17,0,0,0,1.14,11.28,31.39,31.39,0,0,0,2.62,3.67c.32.08-.13.46.26.31s0,.33.21.25.09.28.23.17c.81.44,1.72,1.66,2.61,2,.16,0,.4.41.46.3s.45.45.36.24.8.45.74.31c.5-.11.71.42.84.48,1.22.29,1.92.59,3,.89a24.59,24.59,0,0,0,9.09-.11c1.56-.52,1.73-.17,2.85-.86,1.2-.19.88-.42,1.83-.76.52-.11.44-.4.76-.36.12,0,.2,0,.2-.16.05-.35.16.24.45-.08s-.08-.45.56-.37c.56-.84,2.85-2,1.68-3.21a.22.22,0,0,1-.22-.19v0c0-.28-.42-.27-.31-.57s0-.2-.07-.12-.23-.4-.56-.77-.22-.62-.45-.88c-.09-.07-.13,0-.06.05.16.38-.16,0-.26-.3-.47-1.19-1.64.49-2.14.52-.26-.17.07.36-.09.33s-.57.19-.5.31-.41,0-.48.19-.61.15-.7.33c.08,0-.74.72-.61.41A17.7,17.7,0,0,1,297.46,57c-.55.16.15-.49-.58,0-.19.3-.74-.22-.76,0,.18.27-1.16.06-1.07,0-.27-.11-.55,0-1.26-.15a8.2,8.2,0,0,1-4.14-1.45c-.56.1-.31-.34-.64-.49s.1.36-.29,0c-.17-.21-1-.64-.93-.95s-.25.11-.23-.12-.65-.2-.6-.71c.06-.08,0-.11-.06,0s-.47-.77-.61-.66-.09-.33-.27-.43c-.45-.5-.55-.64-.47-.71s-.51-.76-.39-.89-.29-.06-.16-.32c0-.6-.46-1.07-.46-1.79H309c.2-.14,1.66-1.17,1.07-.83C309.76,47.53,309.76,47.51,309.94,47.29Zm-15.5-4.63c-6-.42-10.88,1.08-9.18-1.23.28-.37.14-.83.28-.78.49-.36.18-.74,1.12-1.5a5.38,5.38,0,0,1,1.81-1.74,5,5,0,0,1,1.23-.71c.64,0,0-.44.53-.33h.23s.42-.37.26-.11c-.05.1,0,.06.19-.08,1.76-.88,4.87-.69,6.73-.09.6,0,.19.22.57.28s1.53.52,1.62.82c-.06.08,0,.13,0,.11.35-.07,1,.64,1.07.82a8.1,8.1,0,0,1,3.21,4.58Z"/><path class="cls-1" d="M235.12,45.14a20,20,0,0,0-1.46-5.64c-.17,0-.06-.46-.26-.35s.08-.37-.13-.34,0-.26-.24-.33,0-.26-.29-.54-.18-.25,0-.16-.06-.17-.38-.54c-.8-.85-.16-.66-.86-1a1.63,1.63,0,0,0-.85-.89c-.08-.29-.64-.76-.8-1.07a8.78,8.78,0,0,0-1.71-1.2c-.35-.17-.95-.9-1.62-1-.41-.2-.5-.56-1.07-.51a.28.28,0,0,1-.25-.19c-.13-.3-.35,0-.57-.2s-.14.1-.4-.14S224,31,224,31c-3.21-1.4-8-1-10.87-.08,0-.21-.38.41-.52.24s-.28.25-.53.13a.22.22,0,0,0-.28.13h0c-.06.27-.31,0-.32.2s0,.12-.13.08-.25.39-.37.29-.85.2-.88.33-.05.11-.12.06-.24.39-.46.31-.16,0-.14.15-.37,0-.62.41c-1,.51-1,1.59-1-1.07,0-1.64-.11-1.58-.34-2a35.33,35.33,0,0,0-5-.06c-.29,0,0,.28-.23.31-.18-.41-.25,50.49,0,49.2.11-.06.13,0,.08.12-.56.39,4.49.15,5.24.21.36-1,.27-3.65.31-11,.35-5.72-.67-11.09.6-9.51.51.11.46.48.84.56.13,0,.18,0,.12.16s.43-.13.36.18c0,.11,0,.2.1.2.69,0,.66.53,1.32.55.16,0,.65.58.86.46s.2,0,.2.09.26,0,.34.14.74.08.76.28.1.09.21,0a16.79,16.79,0,0,0,12.67-1,3.93,3.93,0,0,0,1-.57c0-.21.42-.1.41-.31s.34,0,.66-.41.59-.14.76-.55.36,0,.38-.32.65-.46.61-.64.54-.26.48-.49.29,0,.28-.25c.26-.47.58-.4.87-1.07.47-.53-.17.26.25-.1.25-.08.29-.94.53-.93s.28-.66.44-.61.1-.07,0-.14.37-.25.26-.5c.15-.32.68-1,.66-1.47,0-.19.57-.8.43-1.07s.28.1.21-.2a10.57,10.57,0,0,1,.47-2c-.21.14-.21,0,0-.63A12.78,12.78,0,0,0,235.12,45.14Zm-5.74,2.48a9.13,9.13,0,0,1-1.8,5c-.14,0,.12.3-.18.28,0-.13-.62,1.07-.85,1A8.44,8.44,0,0,1,223.74,56a12.48,12.48,0,0,1-2.28,1c-.75.54-.1-.5-.62.07-1.07.42-5.58.16-6.57-.66-.28-.27-.36,0-.69-.34s-.48-.07-.56-.28-.28.08-.28-.13-.7-.25-.72-.58-.34,0-.57-.47c-.13-.2-.27-.33-.3-.28-.55-.1-.39-.58-.91-1-2.55-2.42-3-7.89-1.72-11,0-.11,0-.19.08-.19.24-.07.13-.36.4-.5.46-.32-.38,0,.15-.41s.09-.88.5-.88a.24.24,0,0,0,.21-.27c-.06-.29.51-.36.49-.54s.85-.72.88-.91.43-.13.42-.42.31-.3.19,0,.27-.06.15-.15c-.1-.3,1.08-.63,1.3-.83.05-.16.83-.24.79-.47s.47-.06.46-.27,0-.1.09,0,2.14-.72,2-.44.33-.22.4-.06a7.27,7.27,0,0,1,2.71-.09h0c.52.22,2.14.19,2.21.39a7.65,7.65,0,0,0,1.81.77c.09-.08.12,0,0,.07-.23.31.35-.06.29.12s1.07.74,1.23.85.3.43.59.43-.38.12.29.34.52,1.13,1.19,1.18c-.06.3,1,1.39.88,1.7A9.81,9.81,0,0,1,229.38,47.62Z"/></g></g></g></g></svg>